<svg width="43" height="27" viewBox="0 0 43 27" fill="none" xmlns="http://www.w3.org/2000/svg">
<path d="M34.3955 22.2152C36.4077 22.2152 38.039 20.584 38.039 18.5717C38.039 16.5595 36.4077 14.9282 34.3955 14.9282C32.3832 14.9282 30.752 16.5595 30.752 18.5717C30.752 20.584 32.3832 22.2152 34.3955 22.2152Z" stroke="#110C71" stroke-width="1.5" stroke-miterlimit="10" stroke-linecap="round" stroke-linejoin="round"/>
<path d="M37.9979 19.0983C38.5229 19.458 38.2557 20.2806 37.6194 20.263C37.171 20.2506 36.8501 20.6924 37.0004 21.115C37.2138 21.7148 36.5141 22.2231 36.0097 21.8348C35.6542 21.5612 35.1348 21.73 35.008 22.1603C34.8282 22.7709 33.9633 22.7709 33.7834 22.1603C33.6566 21.7301 33.1372 21.5613 32.7818 21.8348C32.2774 22.2231 31.5777 21.7147 31.791 21.115C31.9414 20.6924 31.6204 20.2506 31.172 20.263C30.5357 20.2806 30.2684 19.458 30.7936 19.0983C31.1637 18.8448 31.1637 18.2986 30.7936 18.0452C30.2685 17.6854 30.5358 16.8629 31.172 16.8805C31.6204 16.8929 31.9414 16.4511 31.791 16.0284C31.5777 15.4287 32.2774 14.9204 32.7818 15.3086C33.1372 15.5823 33.6566 15.4135 33.7834 14.9831C33.9633 14.3726 34.8282 14.3726 35.008 14.9831C35.1348 15.4134 35.6542 15.5822 36.0097 15.3086C36.5141 14.9204 37.2138 15.4288 37.0004 16.0284C36.8501 16.4511 37.171 16.8929 37.6194 16.8805C38.2558 16.8629 38.523 17.6854 37.9979 18.0452C37.6277 18.2987 37.6277 18.8448 37.9979 19.0983Z" stroke="#110C71" stroke-width="1.5" stroke-miterlimit="10" stroke-linecap="round" stroke-linejoin="round"/>
<path d="M1 1H41.6392V25.42H1V1Z" stroke="#110C71" stroke-width="1.5" stroke-miterlimit="10" stroke-linecap="round" stroke-linejoin="round"/>
<path d="M11.2571 7.35341C11.2571 8.75336 10.2813 10.051 9.07751 10.051C7.87374 10.051 6.89795 8.75336 6.89795 7.35341C6.89795 5.95345 7.87374 4.98132 9.07751 4.98132C10.2813 4.98132 11.2571 5.95345 11.2571 7.35341Z" stroke="#110C71" stroke-width="1.5" stroke-miterlimit="10" stroke-linecap="round" stroke-linejoin="round"/>
<path d="M9.79736 10.0132C9.9946 10.9288 10.3868 11.6874 11.1743 12.0161L11.8465 12.2967C12.6754 12.6427 13.2653 13.4658 13.3815 14.4386L13.4947 15.573" stroke="#110C71" stroke-width="1.5" stroke-miterlimit="10" stroke-linecap="round" stroke-linejoin="round"/>
<path d="M8.32727 10.0132C8.13003 10.9288 7.73783 11.6874 6.95036 12.0161L6.27815 12.2967C5.44922 12.6427 4.85934 13.4658 4.74313 14.4386L4.62988 15.573" stroke="#110C71" stroke-width="1.5" stroke-miterlimit="10" stroke-linecap="round" stroke-linejoin="round"/>
<path d="M18.2568 10.0089H36.9415" stroke="#110C71" stroke-width="1.5" stroke-miterlimit="10" stroke-linecap="round" stroke-linejoin="round"/>
<path d="M18.2568 6.51643H36.9415" stroke="#110C71" stroke-width="1.5" stroke-miterlimit="10" stroke-linecap="round" stroke-linejoin="round"/>
<path d="M18.2568 13.5014H26.5514" stroke="#110C71" stroke-width="1.5" stroke-miterlimit="10" stroke-linecap="round" stroke-linejoin="round"/>
<path d="M4.72314 20.399H13.6289" stroke="#110C71" stroke-width="1.5" stroke-miterlimit="10" stroke-linecap="round" stroke-linejoin="round"/>
<path d="M18.2568 20.399H22.7097" stroke="#110C71" stroke-width="1.5" stroke-miterlimit="10" stroke-linecap="round" stroke-linejoin="round"/>
</svg>
